<svg xmlns="http://www.w3.org/2000/svg" viewBox="40 41 1924 880" role="img" aria-label="ROGUETECHNOLOGIES">
  <title>ROGUETECHNOLOGIES</title>
  <path fill="#C9CCD1" fill-rule="evenodd" d="M 578.002 178.750 C 578.003 179.162, 580.150 180.963, 582.773 182.750 L 587.541 186 885.068 186 L 1182.594 186 1186.500 182 L 1190.406 178 884.203 178 C 715.791 178, 578.001 178.338, 578.002 178.750 M 197 815.652 C 187.154 817.461, 181.692 821.248, 178.328 828.596 C 172.974 840.290, 172.996 874.760, 178.365 886.487 C 183.375 897.429, 190.150 899.889, 217.500 900.697 C 268.535 902.205, 275.427 897.003, 275.383 857 C 275.359 835.393, 273.864 828.804, 267.557 822.517 C 261.078 816.060, 259.097 815.710, 227.500 815.436 C 212.100 815.302, 198.375 815.399, 197 815.652 M 316.770 815.988 C 307.227 817.684, 300.624 823.236, 297.867 831.882 C 296.171 837.201, 295.539 870.979, 296.997 878.388 C 300.552 896.462, 307.199 899.870, 340.500 900.697 C 388.977 901.900, 396.059 897.692, 396.375 867.500 L 396.500 855.500 371.750 855.233 L 347 854.965 347 859.483 L 347 864 366.641 864 L 386.282 864 385.760 872.365 C 385.175 881.741, 383.805 885.354, 379.676 888.410 C 376.961 890.420, 375.710 890.500, 347.176 890.500 C 313.821 890.500, 312.814 890.302, 309.332 883.044 C 306.781 877.727, 305.489 860.291, 306.648 846.837 C 308.576 824.459, 310.805 823.385, 353.569 824.235 C 381.786 824.795, 383.434 825.422, 384.695 836.076 L 385.279 841 390.777 841 L 396.275 841 395.609 835.329 C 394.450 825.468, 391.960 821.338, 385.290 818.213 L 379.500 815.500 350.500 815.323 C 334.550 815.226, 319.371 815.525, 316.770 815.988 M 60.667 816.667 C 60.300 817.033, 60 835.708, 60 858.167 L 60 899 65.500 899 L 71 899 71 882.483 L 71 865.966 96.592 866.233 L 122.185 866.500 130.735 882.750 L 139.286 899 144.690 899 L 150.094 899 141.891 883.250 C 137.379 874.587, 133.313 867.010, 132.855 866.411 C 132.300 865.685, 133.988 864.775, 137.910 863.685 C 149.158 860.557, 152.487 854.358, 151.822 837.777 C 151.025 817.929, 145.631 816.122, 86.917 816.037 C 72.846 816.017, 61.033 816.300, 60.667 816.667 M 419.008 843.198 C 419.016 873.677, 419.833 881.224, 423.912 888.500 C 429.292 898.097, 439.577 900.977, 468.526 900.992 C 494.650 901.007, 506.773 898.099, 511.824 890.608 C 516.943 883.015, 517.358 879.787, 517.432 847 L 517.500 816.500 512.500 816.500 L 507.500 816.500 507 847.500 C 506.277 892.302, 507.895 890.327, 471.500 890.835 C 445.541 891.197, 438.675 890.417, 435.202 886.709 C 430.852 882.064, 430.555 879.821, 430.017 847.500 L 429.500 816.500 424.250 816.198 L 419 815.895 419.008 843.198 M 542 857.489 L 542 899 583 899 L 624 899 624 894.500 L 624 890 587.973 890 L 551.945 890 552.223 875.750 L 552.500 861.500 586.307 861.237 L 620.114 860.973 619.807 856.737 L 619.500 852.500 585.750 852.237 L 552 851.973 552 838.999 L 552 826.026 587.250 825.763 L 622.500 825.500 622.500 821 L 622.500 816.500 582.250 816.239 L 542 815.977 542 857.489 M 198.867 824.969 C 189.732 826.609, 187.565 829.503, 185.825 842.383 C 184.582 851.587, 185.312 874.427, 187.039 880.378 C 189.892 890.207, 193.757 891.208, 227.330 890.810 C 257.620 890.451, 258.634 890.201, 262.333 882.179 C 264.314 877.881, 264.490 875.874, 264.490 857.500 C 264.490 838.998, 264.325 837.142, 262.286 832.716 C 258.757 825.054, 257.056 824.640, 228 824.367 C 214.525 824.240, 201.415 824.511, 198.867 824.969 M 71 840.937 L 71 856 100.750 855.994 C 132.371 855.988, 137.002 855.453, 139.588 851.505 C 141.455 848.656, 141.784 834.333, 140.056 831.105 C 137.718 826.736, 136.043 826.515, 102.750 826.187 L 71 825.873 71 840.937"/>
  <path fill="#383840" fill-rule="evenodd" d="M 588.550 186.856 C 589.072 187.327, 612.970 205.102, 641.656 226.356 L 693.812 265 761.013 265 C 823.450 265, 828.168 265.119, 827.571 266.675 C 826.505 269.453, 669 741.200, 669 741.615 C 669 741.827, 727.275 742, 798.500 742 L 928 742 928 503.500 L 928 265 1010.934 265 L 1093.868 265 1137.434 225.945 C 1161.395 204.465, 1181 186.690, 1181 186.445 C 1181 186.200, 1047.485 186, 884.300 186 C 719.704 186, 588.023 186.381, 588.550 186.856"/>
  <path fill="#E82018" fill-rule="evenodd" d="M 421.528 62.854 C 422.613 63.874, 448.818 83.449, 479.763 106.353 L 536.025 147.997 920.830 148.249 L 1305.634 148.500 1157.360 271 C 1075.809 338.375, 1009.179 393.804, 1009.293 394.176 C 1009.569 395.078, 1533.106 801.242, 1533.455 800.825 C 1533.671 800.567, 1403.873 645.748, 1201.303 404.646 L 1184.106 384.178 1378.731 225.339 C 1485.775 137.978, 1574.738 65.276, 1576.428 63.779 L 1579.500 61.059 999.528 61.029 C 434.692 61.001, 419.607 61.048, 421.528 62.854 M 886.987 816.310 C 871.287 819.822, 867.035 828.600, 867.035 857.500 C 867.035 889.761, 872.150 897.512, 895.184 900.155 C 906.103 901.408, 944.285 900.610, 951 898.988 C 961.308 896.499, 966.353 890.043, 967.594 877.750 L 968.276 871 962.777 871 L 957.278 871 956.720 877.153 C 955.545 890.110, 953.488 890.871, 919.500 890.938 C 887.470 891.001, 884.457 890.355, 880.148 882.502 C 878.758 879.971, 878.500 876.050, 878.500 857.500 C 878.500 823.635, 877.452 824.500, 918.500 824.500 C 943.405 824.500, 946.858 824.696, 949.741 826.271 C 954.313 828.770, 956.100 832.015, 956.730 838.964 L 957.278 845 962.777 845 L 968.276 845 967.597 838.369 C 966.394 826.624, 963.303 821.727, 954.652 817.857 C 949.711 815.647, 948.332 815.542, 921 815.315 C 901.248 815.150, 890.808 815.456, 886.987 816.310 M 1261.987 816.356 C 1246.332 819.729, 1242.035 828.591, 1242.035 857.500 C 1242.035 895.589, 1248.297 900.985, 1292.500 900.985 C 1336.516 900.985, 1342.935 895.391, 1342.973 857 C 1343 828.600, 1338.012 819.063, 1321.566 816.077 C 1313.558 814.623, 1269.061 814.831, 1261.987 816.356 M 1479.344 816.001 C 1465.221 818.932, 1460.528 825.934, 1458.882 846.532 C 1457.574 862.891, 1458.987 879.107, 1462.360 886.475 C 1467.375 897.430, 1474.142 899.889, 1501.500 900.697 C 1552.530 902.205, 1559.457 896.978, 1559.409 857 C 1559.384 835.416, 1557.882 828.822, 1551.557 822.517 C 1545.085 816.067, 1543.090 815.713, 1511.500 815.409 C 1496.100 815.260, 1481.630 815.527, 1479.344 816.001 M 1600.770 815.988 C 1591.227 817.684, 1584.624 823.236, 1581.867 831.882 C 1580.171 837.201, 1579.539 870.979, 1580.997 878.388 C 1584.552 896.462, 1591.199 899.870, 1624.500 900.697 C 1672.977 901.900, 1680.059 897.692, 1680.375 867.500 L 1680.500 855.500 1655.750 855.233 L 1631 854.965 1631 859.483 L 1631 864 1650.648 864 L 1670.296 864 1669.707 873.085 C 1669.078 882.795, 1667.875 885.726, 1663.279 888.736 C 1660.860 890.321, 1657.584 890.500, 1631.043 890.500 C 1597.910 890.500, 1596.785 890.280, 1593.405 883.159 C 1590.815 877.700, 1589.482 859.671, 1590.700 846.566 C 1592.761 824.390, 1594.867 823.386, 1637.569 824.235 C 1665.786 824.795, 1667.434 825.422, 1668.695 836.076 L 1669.279 841 1674.777 841 L 1680.275 841 1679.609 835.329 C 1678.450 825.468, 1675.960 821.338, 1669.290 818.213 L 1663.500 815.500 1634.500 815.323 C 1618.550 815.226, 1603.371 815.525, 1600.770 815.988 M 1859 816.387 C 1846.216 819.222, 1842.668 824.024, 1842.663 838.500 C 1842.660 848.382, 1843.986 852.270, 1848.596 855.897 C 1853.239 859.549, 1857.904 860.143, 1889 861.039 C 1933.929 862.334, 1932.500 861.868, 1932.500 875.206 C 1932.500 890.684, 1931.685 891.001, 1891.807 890.998 C 1855.843 890.996, 1854.986 890.677, 1853.392 876.702 L 1852.731 870.905 1847.615 871.202 L 1842.500 871.500 1842.760 876.500 C 1843.415 889.075, 1847.635 895.580, 1857.016 898.477 C 1861.206 899.771, 1867.926 900.299, 1885.500 900.713 C 1935.073 901.883, 1943.391 898.188, 1943.391 875.002 C 1943.391 854.070, 1940.076 852.587, 1890.975 851.546 C 1853.548 850.753, 1853.500 850.736, 1853.500 837.874 C 1853.500 828.164, 1854.869 826.407, 1863.547 824.986 C 1872.203 823.569, 1919.642 823.820, 1924 825.306 C 1928.141 826.719, 1930.996 831.591, 1930.998 837.250 L 1931 841 1936.642 841 L 1942.285 841 1941.639 834.820 C 1940.459 823.526, 1936.028 818.244, 1925.914 816.075 C 1918.874 814.565, 1866.107 814.811, 1859 816.387 M 654 821 L 654 826 674.500 826 L 695 826 695 862.500 L 695 899 700 899 L 705 899 705 862.500 L 705 826 725.500 826 L 746 826 746 821 L 746 816 700 816 L 654 816 654 821 M 768 857.489 L 768 899 809 899 L 850 899 850 894.500 L 850 890 814.500 890 L 779 890 779 875.500 L 779 861 812.500 861 L 846 861 846 856.500 L 846 852 812.500 852 L 779 852 779 839.013 L 779 826.026 813.750 825.763 L 848.500 825.500 848.500 821 L 848.500 816.500 808.250 816.239 L 768 815.977 768 857.489 M 992 857.500 L 992 899 997 899 L 1002 899 1002 880 L 1002 861 1039.500 861 L 1077 861 1077 880 L 1077 899 1082.511 899 L 1088.022 899 1087.761 857.750 L 1087.500 816.500 1082.500 816.500 L 1077.500 816.500 1077.227 834.250 L 1076.954 852 1039.477 852 L 1002 852 1002 834 L 1002 816 997 816 L 992 816 992 857.500 M 1115 857.500 L 1115 899 1119.987 899 L 1124.974 899 1125.237 864.144 L 1125.500 829.288 1166.500 864.158 L 1207.500 899.028 1213 898.764 L 1218.500 898.500 1218.500 857.500 L 1218.500 816.500 1213.250 816.198 L 1208 815.895 1208 850.448 C 1208 869.451, 1207.763 885, 1207.473 885 C 1207.183 885, 1189.971 870.710, 1169.223 853.244 C 1148.475 835.778, 1130.003 820.253, 1128.173 818.744 C 1125.543 816.574, 1123.816 816, 1119.923 816 L 1115 816 1115 857.500 M 1366.713 816.621 C 1366.321 817.013, 1366 835.708, 1366 858.167 L 1366 899 1404 899 L 1442 899 1442 894.500 L 1442 890 1409.512 890 L 1377.025 890 1376.762 853.250 L 1376.500 816.500 1371.963 816.204 C 1369.467 816.041, 1367.105 816.229, 1366.713 816.621 M 1706 857.448 L 1706 899 1711.511 899 L 1717.022 899 1716.761 857.750 L 1716.500 816.500 1711.250 816.198 L 1706 815.895 1706 857.448 M 1743.667 816.667 C 1743.300 817.033, 1743 835.708, 1743 858.167 L 1743 899 1784.500 899 L 1826 899 1826 894.500 L 1826 890 1790 890 L 1754 890 1754 875.500 L 1754 861 1787.500 861 L 1821 861 1821 856.500 L 1821 852 1787.500 852 L 1754 852 1754 839 L 1754 826 1789 826 L 1824 826 1824 821 L 1824 816 1784.167 816 C 1762.258 816, 1744.033 816.300, 1743.667 816.667 M 1266.120 825.030 C 1254.501 827.444, 1253.500 830.020, 1253.500 857.500 C 1253.500 891.304, 1253.130 890.985, 1292.307 890.994 C 1306.613 890.998, 1317.893 890.552, 1320.571 889.878 C 1330.193 887.455, 1332.364 880.568, 1331.841 854.134 C 1331.259 824.734, 1331.110 824.613, 1295 824.319 C 1281.525 824.210, 1268.529 824.529, 1266.120 825.030 M 1482.905 824.963 C 1474.001 826.565, 1471.519 829.838, 1469.853 842.173 C 1468.583 851.583, 1469.289 874.349, 1471.039 880.378 C 1473.892 890.207, 1477.757 891.208, 1511.330 890.810 C 1541.617 890.451, 1542.630 890.201, 1546.338 882.179 C 1548.326 877.876, 1548.500 875.891, 1548.500 857.500 C 1548.500 838.981, 1548.336 837.146, 1546.291 832.716 C 1542.754 825.054, 1541.053 824.640, 1512 824.367 C 1498.525 824.240, 1485.432 824.508, 1482.905 824.963"/>
</svg>
